<?xml version="1.0" encoding="UTF-8" standalone="no"?>
<!DOCTYPE svg PUBLIC "-//W3C//DTD SVG 1.1//EN" "http://www.w3.org/Graphics/SVG/1.1/DTD/svg11.dtd">
<svg width="100%" height="100%" viewBox="0 0 64 64" version="1.1" xmlns="http://www.w3.org/2000/svg" xmlns:xlink="http://www.w3.org/1999/xlink" xml:space="preserve" xmlns:serif="http://www.serif.com/" style="fill-rule:evenodd;clip-rule:evenodd;stroke-linejoin:round;stroke-miterlimit:2;">
    <g id="Favicon" transform="matrix(1,0,0,1,-90.6554,-143.024)">
        <rect x="90.655" y="143.024" width="64" height="64" style="fill:none;"/>
        <clipPath id="_clip1">
            <rect x="90.655" y="143.024" width="64" height="64"/>
        </clipPath>
        <g clip-path="url(#_clip1)">
            <g transform="matrix(0.163622,0,0,0.168594,75.8222,118.911)">
                <rect x="90.655" y="143.024" width="391.145" height="379.754" style="fill:url(#_Linear2);"/>
            </g>
            <g transform="matrix(1,0,0,1,0.655423,0.0242759)">
                <path d="M103.219,207L107.601,192.556L99.899,185.783L96.181,175L100.43,166.795L101.891,156.968L105.078,150.727L109.991,153.25L114.24,159.757L129.776,159.226L134.026,154.18L140.134,149.532L142.258,157.632L143.321,165.6L146.508,170.513L147.968,178.756L145.711,184.987L139.233,192.178L136.681,192.821L140.134,201.054L141.727,207.024L103.219,207Z" style="fill:white;"/>
            </g>
            <g id="Petidude" transform="matrix(0.119654,0,0,0.119654,19.9421,-44.1692)">
                <g transform="matrix(1,0,0,1,567.485,1478.42)">
                    <path d="M397.642,511.838C397.642,511.838 419.481,566.473 434.298,631.352C436.858,642.562 448.037,649.584 459.247,647.024C470.456,644.464 477.479,633.285 474.919,622.075C457.316,545 430.04,485.637 430.04,485.637C422.809,476.697 409.681,475.308 400.74,482.539C391.8,489.769 390.412,502.898 397.642,511.838ZM153.738,485.637C153.738,485.637 126.462,545 108.859,622.075C106.299,633.285 113.322,644.464 124.531,647.024C135.741,649.584 146.92,642.562 149.48,631.352C164.297,566.473 186.136,511.838 186.136,511.838C193.366,502.898 191.978,489.769 183.038,482.539C174.097,475.308 160.969,476.697 153.738,485.637ZM293.676,395.955L293.588,395.955L293.563,395.955C291.168,395.967 288.734,396.395 286.361,397.285C283.482,398.364 280.983,400.015 278.943,402.059C276.899,404.098 275.249,406.598 274.17,409.477C270.302,419.789 260.537,419.41 252.481,418.121C238.927,415.953 226.998,409.453 226.998,409.453C216.903,403.947 204.238,407.672 198.732,417.766C193.226,427.861 196.951,440.526 207.045,446.032C207.051,446.035 233.839,460.402 259.598,460.402C271.763,460.402 283.69,457.762 293.676,450.721C303.663,457.762 315.59,460.402 327.755,460.402C353.516,460.402 380.307,446.032 380.307,446.032C390.402,440.526 394.127,427.861 388.621,417.766C383.115,407.672 370.449,403.947 360.355,409.453L360.355,409.453C360.355,409.453 348.426,415.953 334.872,418.121C326.815,419.41 317.05,419.789 313.183,409.477C312.104,406.598 310.453,404.098 308.409,402.059C306.37,400.015 303.87,398.364 300.992,397.285C298.619,396.395 296.185,395.967 293.789,395.955L293.764,395.955L293.676,395.955Z" style="fill:rgb(48,46,129);"/>
                </g>
                <g transform="matrix(0.844471,0,0,0.844471,475.757,1010.85)">
                    <path d="M517.247,794.583C496.687,791.038 475.22,789.155 453.143,789.155C431.066,789.155 409.599,791.038 389.039,794.583C360.826,744.487 297.147,702.368 297.147,702.368C287.713,696.236 275.326,697.264 267.032,704.867C253.116,717.623 242.206,739.86 235.14,765.822C223.779,807.561 221.068,859.136 220.43,881.051C190.798,914.001 173.985,953.353 173.985,995.371C173.985,1041.97 194.672,1085.31 230.58,1120.24C280.841,1169.14 361.71,1201.59 453.143,1201.59C544.576,1201.59 625.445,1169.14 675.706,1120.24C711.614,1085.31 732.301,1041.97 732.301,995.371C732.301,953.353 715.488,914.001 685.856,881.05C685.218,859.135 682.507,807.56 671.146,765.822C664.08,739.86 653.17,717.623 639.254,704.867C630.96,697.264 618.573,696.236 609.139,702.368C609.139,702.368 545.46,744.487 517.247,794.583ZM526.302,846.727C539.397,849.768 552.515,841.764 555.802,828.729C556.18,827.23 556.718,825.739 557.409,824.258C570.129,797 597.886,772.218 616.772,757.555C621.852,769.054 625.194,783.663 628.056,798.449C636.144,840.235 636.671,884.948 636.708,891.185C636.747,897.619 639.298,903.785 643.818,908.365C668.177,933.05 682.96,962.921 682.96,995.371C682.96,1028.93 667.157,1059.72 641.299,1084.88C598.909,1126.12 530.257,1152.25 453.143,1152.25C376.029,1152.25 307.377,1126.12 264.987,1084.88C239.129,1059.72 223.326,1028.93 223.326,995.371C223.326,962.921 238.109,933.05 262.468,908.365C266.988,903.785 269.539,897.619 269.578,891.185C269.615,884.948 270.142,840.235 278.23,798.449C281.091,783.663 284.434,769.054 289.514,757.555C308.4,772.218 336.157,797 348.877,824.258C349.568,825.739 350.106,827.23 350.484,828.729C353.771,841.764 366.889,849.768 379.984,846.727C403.029,841.377 427.617,838.496 453.143,838.496C478.669,838.496 503.257,841.377 526.302,846.727Z" style="fill:rgb(48,46,129);"/>
                </g>
                <g transform="matrix(0.844471,0,0,0.844471,616.747,720.658)">
                    <g transform="matrix(1,0,0,1,-169.842,343.639)">
                        <circle cx="368.498" cy="980.426" r="30.441" style="fill:rgb(48,46,129);"/>
                    </g>
                    <g transform="matrix(1,0,0,1,5.21943,343.639)">
                        <circle cx="368.498" cy="980.426" r="30.441" style="fill:rgb(48,46,129);"/>
                    </g>
                </g>
            </g>
        </g>
    </g>
    <defs>
        <linearGradient id="_Linear2" x1="0" y1="0" x2="1" y2="0" gradientUnits="userSpaceOnUse" gradientTransform="matrix(391.145,0,0,379.754,90.6554,332.901)"><stop offset="0" style="stop-color:rgb(100,102,241);stop-opacity:1"/><stop offset="1" style="stop-color:rgb(48,46,129);stop-opacity:1"/></linearGradient>
    </defs>
</svg>
